<?xml version="1.0" standalone="no"?><!DOCTYPE svg PUBLIC "-//W3C//DTD SVG 1.1//EN" "http://www.w3.org/Graphics/SVG/1.1/DTD/svg11.dtd"><svg t="1725011295132" class="icon" viewBox="0 0 1024 1024" version="1.1" xmlns="http://www.w3.org/2000/svg" p-id="6759" xmlns:xlink="http://www.w3.org/1999/xlink" width="200" height="200"><path d="M43.4 323.31s118 148 500 128 442-132 442-132v266s-72 124-452 124-486-118-486-118z" fill="#FFDE76" p-id="6760"></path><path d="M48.22 287.92a463.48 155.99 0 1 0 926.96 0 463.48 155.99 0 1 0-926.96 0Z" fill="#FFCC4D" p-id="6761"></path><path d="M141.92 290.92a370.08 97.5 0 1 0 740.16 0 370.08 97.5 0 1 0-740.16 0Z" fill="#FFDE76" p-id="6762"></path><path d="M43.73 584.9S162.22 709.4 520.7 709.4s454.48-111 454.48-111l4.5 148.49s-64.5 141-444 141c-430.46 0-496.45-145.49-496.45-145.49z" fill="#5983E2" p-id="6763"></path><path d="M43.73 524.9S162.22 649.4 520.7 649.4s454.48-111 454.48-111l4.5 148.49s-64.5 141-444 141c-430.46 0-496.45-145.49-496.45-145.49z" fill="#8AABFF" p-id="6764"></path><path d="M43.4 323.31s118 148 500 128 442-132 442-132v266s-72 124-452 124-486-118-486-118z" fill="#FFDE76" p-id="6765"></path><path d="M148.72 269.92l278.99-22.5 16.5 16.5-21 75-265.49-27-16.5-31.5 7.5-10.5z" fill="#8AABFF" p-id="6766"></path><path d="M437.71 648.9a83.73 83.73 0 0 1-24.6 59.39c-15.2 15.2-124.38-7.65-132.79-18.51s-10.6-26-10.6-40.89a84 84 0 0 1 168 0z" fill="#FFCC4D" p-id="6767"></path><path d="M103.72 517.41m-84 0a84 84 0 1 0 168 0 84 84 0 1 0-168 0Z" fill="#FFCC4D" p-id="6768"></path><path d="M593.7 484.91m-84 0a84 84 0 1 0 168 0 84 84 0 1 0-168 0Z" fill="#FFCC4D" p-id="6769"></path><path d="M923.18 618.9c0 46.39-128.83 74.31-144.08 58.69a84 84 0 1 1 144.08-58.69z" fill="#FFCC4D" p-id="6770"></path><path d="M164.87 333.53l236.76 20.8q1.82 0.16 3.63 0.16a41.93 41.93 0 0 0 39.09-27l16.18-42.81a41.76 41.76 0 0 0-42.69-56.37l-252.94 22a41.76 41.76 0 0 0 0 83.21z m-7-46.61a11.8 11.8 0 0 1 9.62-6.71l252.94-22h1.12a11.77 11.77 0 0 1 10.91 15.93l-16.18 42.81a11.81 11.81 0 0 1-12 7.56l-236.76-20.8a11.76 11.76 0 0 1-9.61-16.73z" fill="#192B3A" p-id="6771"></path><path d="M997 293.57c0-25.91-14.36-50.31-42.67-72.54-25-19.65-60.45-37.16-105.26-52-90.26-30-210-46.47-337.07-46.47S265.19 139 174.93 169c-44.81 14.88-80.22 32.39-105.26 52C41.36 243.26 27 267.66 27 293.57c0 0.93 0 1.85 0.06 2.77H27v434.09c0 25.91 14.36 50.31 42.67 72.54 25 19.65 60.45 37.16 105.26 52 90.26 30 210 46.47 337.07 46.47S758.81 885 849.07 855c44.81-14.88 80.22-32.39 105.26-52 28.31-22.26 42.67-46.66 42.67-72.57V300h-0.31c0.2-2.12 0.31-4.27 0.31-6.43zM88.2 244.63c22-17.27 55.26-33.58 96.19-47.17 87.29-29 203.64-44.94 327.61-44.94s240.33 16 327.61 44.94c40.93 13.59 74.2 29.9 96.19 47.17 20.7 16.25 31.2 32.72 31.2 48.94s-10.5 32.69-31.2 48.94c-22 17.27-55.26 33.58-96.19 47.17C752.33 418.67 636 434.63 512 434.63s-240.33-16-327.61-44.94c-40.93-13.59-74.2-29.9-96.19-47.17C67.5 326.27 57 309.8 57 293.57s10.5-32.69 31.2-48.94z m847.6 534.74c-22 17.27-55.26 33.58-96.19 47.17C752.33 855.52 636 871.48 512 871.48s-240.33-16-327.61-44.94c-40.93-13.59-74.2-29.9-96.19-47.17C67.5 763.12 57 746.65 57 730.43V616.1a165.43 165.43 0 0 0 12.67 11c25 19.65 60.45 37.16 105.26 52 90.26 30 210 46.47 337.07 46.47s246.81-16.5 337.07-46.47c44.81-14.88 80.22-32.39 105.26-52a165.49 165.49 0 0 0 12.67-11v114.33c0 16.22-10.5 32.69-31.2 48.94z m0-175.88c-22 17.27-55.26 33.58-96.19 47.17C752.33 679.64 636 695.6 512 695.6s-240.33-16-327.61-44.94c-40.93-13.59-74.2-29.9-96.19-47.17C67.5 587.24 57 570.77 57 554.55V355.12a165.38 165.38 0 0 0 12.67 11c25 19.65 60.45 37.16 105.26 52 90.26 30 210 46.47 337.07 46.47s246.81-16.5 337.07-46.47c44.81-14.88 80.22-32.39 105.26-52a165.44 165.44 0 0 0 12.67-11v199.43c0 16.22-10.5 32.69-31.2 48.94z" fill="#192B3A" p-id="6772"></path></svg>